<mxfile host="app.diagrams.net" modified="2021-02-12T20:11:25.722Z" agent="5.0 (Windows NT 10.0; Win64; x64) AppleWebKit/537.36 (KHTML, like Gecko) Chrome/88.0.4324.146 Safari/537.36" etag="Vk9yo9wTboTsM_3v_HCd" version="14.3.1" type="github">
  <diagram id="8TOZ0ANMqXuZlfHcByU6" name="Page-1">
    <mxGraphModel dx="942" dy="582" grid="1" gridSize="10" guides="1" tooltips="1" connect="1" arrows="1" fold="1" page="1" pageScale="1" pageWidth="827" pageHeight="1169" math="0" shadow="0">
      <root>
        <mxCell id="0" />
        <mxCell id="1" parent="0" />
        <mxCell id="tQD5B4Otmv4WHuCxdzGK-1" value="ARRAY&lt;br&gt;{4,2,3,5,1}" style="rounded=0;whiteSpace=wrap;html=1;" parent="1" vertex="1">
          <mxGeometry x="310" y="20" width="120" height="60" as="geometry" />
        </mxCell>
        <mxCell id="tQD5B4Otmv4WHuCxdzGK-2" value="&lt;b&gt;&lt;font style=&quot;font-size: 15px&quot;&gt;We take a temp variable, max variable and min variable.&lt;/font&gt;&lt;/b&gt;" style="text;html=1;align=center;verticalAlign=middle;resizable=0;points=[];autosize=1;" parent="1" vertex="1">
          <mxGeometry x="140" y="120" width="410" height="20" as="geometry" />
        </mxCell>
        <mxCell id="tQD5B4Otmv4WHuCxdzGK-3" value="&lt;font style=&quot;font-size: 14px&quot;&gt;&lt;b&gt;Next array length and total variables&lt;/b&gt;&lt;/font&gt;" style="text;html=1;align=center;verticalAlign=middle;resizable=0;points=[];autosize=1;" parent="1" vertex="1">
          <mxGeometry x="135" y="150" width="260" height="20" as="geometry" />
        </mxCell>
        <mxCell id="tQD5B4Otmv4WHuCxdzGK-4" value="&lt;font size=&quot;1&quot;&gt;&lt;b style=&quot;font-size: 14px&quot;&gt;for loop(startting from 0 ; less than array length and increasing successively)&lt;/b&gt;&lt;/font&gt;" style="text;html=1;align=center;verticalAlign=middle;resizable=0;points=[];autosize=1;" parent="1" vertex="1">
          <mxGeometry x="140" y="180" width="530" height="20" as="geometry" />
        </mxCell>
        <mxCell id="tQD5B4Otmv4WHuCxdzGK-6" value="This loop checks for the minimum and maximum vallues and stores them in the variables we defined above&lt;br&gt;Also their respective locations" style="text;html=1;align=center;verticalAlign=middle;resizable=0;points=[];autosize=1;" parent="1" vertex="1">
          <mxGeometry x="200" y="260" width="580" height="30" as="geometry" />
        </mxCell>
        <mxCell id="tQD5B4Otmv4WHuCxdzGK-5" value="&lt;span style=&quot;color: rgb(0 , 0 , 0) ; font-family: &amp;#34;helvetica&amp;#34; ; font-style: normal ; letter-spacing: normal ; text-align: center ; text-indent: 0px ; text-transform: none ; word-spacing: 0px ; background-color: rgb(248 , 249 , 250) ; display: inline ; float: none&quot;&gt;&lt;font size=&quot;1&quot;&gt;&lt;b style=&quot;font-size: 14px&quot;&gt;Another for loop(startting from 0 ; less than array length and increasing successively)&lt;/b&gt;&lt;/font&gt;&lt;/span&gt;" style="text;whiteSpace=wrap;html=1;" parent="1" vertex="1">
          <mxGeometry x="210" y="210" width="430" height="30" as="geometry" />
        </mxCell>
        <mxCell id="tQD5B4Otmv4WHuCxdzGK-12" value="" style="shape=flexArrow;endArrow=classic;html=1;" parent="1" target="tQD5B4Otmv4WHuCxdzGK-5" edge="1">
          <mxGeometry width="50" height="50" relative="1" as="geometry">
            <mxPoint x="360" y="240" as="sourcePoint" />
            <mxPoint x="410" y="190" as="targetPoint" />
            <Array as="points" />
          </mxGeometry>
        </mxCell>
        <mxCell id="tQD5B4Otmv4WHuCxdzGK-16" value="" style="line;strokeWidth=2;direction=south;html=1;" parent="1" vertex="1">
          <mxGeometry x="160" y="200" width="10" height="160" as="geometry" />
        </mxCell>
        <mxCell id="tQD5B4Otmv4WHuCxdzGK-17" value="&lt;font style=&quot;font-size: 14px&quot;&gt;&lt;b&gt;Stores the max&lt;br&gt;And min&lt;br&gt;&lt;/b&gt;&lt;/font&gt;" style="text;html=1;align=center;verticalAlign=middle;resizable=0;points=[];autosize=1;" parent="1" vertex="1">
          <mxGeometry x="150" y="360" width="120" height="40" as="geometry" />
        </mxCell>
        <mxCell id="clSINEqiU_Z-F3-VeuVZ-1" value="&lt;b&gt;&lt;font style=&quot;font-size: 14px&quot;&gt;Decreasing array Size&lt;/font&gt;&lt;/b&gt;" style="text;html=1;align=center;verticalAlign=middle;resizable=0;points=[];autosize=1;" vertex="1" parent="1">
          <mxGeometry x="160" y="420" width="160" height="20" as="geometry" />
        </mxCell>
      </root>
    </mxGraphModel>
  </diagram>
</mxfile>
